<svg xmlns="http://www.w3.org/2000/svg" viewBox="0 0 1600 600">
<defs><linearGradient id="sky" x1="0" y1="0" x2="1" y2="1"><stop stop-color="#f6c173"/><stop offset=".4" stop-color="#83b8d5"/><stop offset="1" stop-color="#1c567d"/></linearGradient><linearGradient id="gnd" x1="0" y1="0" x2="0" y2="1"><stop stop-color="#887564"/><stop offset="1" stop-color="#48413d"/></linearGradient><filter id="s"><feDropShadow dx="0" dy="9" stdDeviation="10" flood-opacity=".28"/></filter></defs>
<rect width="1600" height="600" fill="url(#sky)"/><circle cx="180" cy="115" r="66" fill="#ffdca3" opacity=".8"/><path d="M0 330 190 220 315 305 475 210 620 320 790 235 980 330 1190 220 1390 320 1600 230V445H0Z" fill="#365f79" opacity=".55"/>
<g opacity=".9"><rect x="930" y="205" width="115" height="245" fill="#84939b"/><rect x="1060" y="170" width="150" height="280" fill="#667983"/><rect x="1225" y="225" width="125" height="225" fill="#7e8c94"/><rect x="1365" y="190" width="165" height="260" fill="#60737d"/></g>
<g filter="url(#s)"><rect x="70" y="165" width="520" height="310" fill="#6e7478"/><g fill="#c1c6c8"><rect x="95" y="188" width="470" height="31"/><rect x="95" y="278" width="470" height="31"/><rect x="95" y="368" width="470" height="31"/></g><g fill="#596268"><rect x="120" y="150" width="18" height="325"/><rect x="232" y="150" width="18" height="325"/><rect x="344" y="150" width="18" height="325"/><rect x="456" y="150" width="18" height="325"/></g><g fill="#73a6c4"><rect x="145" y="223" width="70" height="48"/><rect x="258" y="223" width="70" height="48"/><rect x="372" y="223" width="70" height="48"/><rect x="145" y="313" width="70" height="48"/><rect x="258" y="313" width="70" height="48"/></g></g>
<g stroke="#d69a34" stroke-width="12" fill="none"><path d="M650 445V82"/><path d="M650 90h355"/><path d="M650 126H540"/></g><g stroke="#f0bd5c" stroke-width="3"><path d="M650 90 1000 90M650 118 950 90M650 90 950 118M650 150 545 126"/></g>
<rect y="445" width="1600" height="155" fill="url(#gnd)"/>
<g filter="url(#s)"><g transform="translate(150 435)" stroke="#2d3337" stroke-width="14" stroke-linecap="round"><path d="M0 48 245 4"/><path d="M15 66 260 22"/><path d="M-10 30 235-12"/></g><g transform="translate(460 415)"><path d="M12 18h125l18 105H0Z" fill="#d7c09b"/><rect x="28" y="60" width="90" height="30" rx="5" fill="#eee4d5"/></g><g transform="translate(640 455)" fill="#be4f28"><rect width="70" height="42" rx="4"/><rect x="76" width="70" height="42" rx="4"/><rect x="38" y="48" width="70" height="42" rx="4"/><rect x="114" y="48" width="70" height="42" rx="4"/></g><g transform="translate(860 470)"><g fill="#75858f"><rect width="190" height="34" rx="17"/><rect y="43" width="190" height="34" rx="17"/><rect x="22" y="86" width="170" height="32" rx="16"/></g><g fill="#dce3e7" stroke="#56636c" stroke-width="7"><circle cx="190" cy="17" r="22"/><circle cx="190" cy="60" r="22"/><circle cx="192" cy="102" r="21"/></g></g><rect x="1120" y="456" width="180" height="105" rx="7" fill="#ddd7ce"/><rect x="1370" y="470" width="86" height="88" rx="13" fill="#efa41c"/></g>
<path d="M748 560a46 46 0 0 1 92 0Z" fill="#f2a51d"/><rect x="744" y="557" width="100" height="12" rx="5" fill="#d98d10"/></svg>